<?xml version="1.0" encoding="UTF-8"?>
<svg width="552px" height="419px" viewBox="0 0 552 419" version="1.1" xmlns="http://www.w3.org/2000/svg" xmlns:xlink="http://www.w3.org/1999/xlink">
    <title>首页-viewport大于1260</title>
    <g id="官网" stroke="none" stroke-width="1" fill="none" fill-rule="evenodd">
        <g id="首页-viewport大于1260" transform="translate(-704.000000, -186.000000)">
            <rect fill="#FFFFFF" x="0" y="0" width="1440" height="4716"></rect>
            <g id="Hero" transform="translate(704.000000, 186.000000)">
                <path d="M0.5,23.5 C0.5,48.1666667 0.5,63.8333333 0.5,70.5 C0.5,80.5 6.5,86.5 16.5,86.5 C26.5,86.5 430.5,86.5 440.5,86.5 C450.5,86.5 456.5,92.5 456.5,102.5 C456.5,109.166667 456.5,148.833333 456.5,221.5" id="路径-2" stroke="#C7E6FF"></path>
                <path d="M216.5,327.5 C160.5,327.5 129.166667,327.5 122.5,327.5 C112.5,327.5 106.5,321.5 106.5,311.5 C106.5,301.5 106.5,277.5 106.5,267.5 C106.5,257.5 100.5,251.5 90.5,251.5 C83.8333333,251.5 59.8333333,251.5 18.5,251.5" id="路径-3" stroke="#C7E6FF"></path>
                <line x1="456.5" y1="124.5" x2="456.5" y2="170.5" id="直线" stroke="#81ADFF" stroke-linecap="square" stroke-dasharray="3"></line>
                <line x1="413.5" y1="86.5" x2="434.5" y2="86.5" id="直线备份-2" stroke="#81ADFF" stroke-linecap="square" stroke-dasharray="3"></line>
                <line x1="145.5" y1="327.5" x2="192.5" y2="327.5" id="直线备份-3" stroke="#81ADFF" stroke-linecap="square" stroke-dasharray="3"></line>
                <line x1="0.5" y1="23.5" x2="0.5" y2="59.5" id="直线备份" stroke="#81ADFF" stroke-linecap="square" stroke-dasharray="3"></line>
                <line x1="456.5" y1="221.5" x2="459.5" y2="218.5" id="直线-2" stroke="#B2DBFF" stroke-linecap="square"></line>
                <line x1="453.5" y1="221.5" x2="456.5" y2="218.5" id="直线-2备份" stroke="#B2DBFF" stroke-linecap="square" transform="translate(455.000000, 220.000000) scale(-1, 1) translate(-455.000000, -220.000000) "></line>
                <g id="编组-5" transform="translate(66.000000, 0.000000)">
                    <rect id="矩形" fill="#F2F2F2" x="0" y="0" width="96" height="160" rx="8"></rect>
                    <rect id="矩形备份-6" fill="#E7E7E7" x="50" y="77" width="38" height="32" rx="4"></rect>
                    <rect id="矩形备份-11" fill="#F6D894" x="54" y="81" width="21" height="4" rx="2"></rect>
                    <rect id="矩形" fill="#C1C1C1" x="36" y="8" width="24" height="8" rx="4"></rect>
                    <rect id="矩形" fill="#FDBEAF" x="6" y="22" width="84" height="28" rx="4"></rect>
                    <path d="M60,22 L86,22 C88.209139,22 90,23.790861 90,26 L90,46 C90,48.209139 88.209139,50 86,50 L40,50 L40,50 L60,22 Z" id="矩形备份-16" fill="#A1E1FF"></path>
                    <rect id="矩形" stroke="#979797" fill="#D8D8D8" x="6.5" y="53.5" width="20" height="1"></rect>
                    <rect id="矩形备份-3" stroke="#979797" fill="#D8D8D8" x="27.5" y="53.5" width="20" height="1"></rect>
                    <rect id="矩形备份-4" stroke="#979797" fill="#D8D8D8" x="48.5" y="53.5" width="20" height="1"></rect>
                    <rect id="矩形备份-5" stroke="#979797" fill="#D8D8D8" x="69.5" y="53.5" width="20" height="1"></rect>
                    <circle id="椭圆形" fill="#F6D894" cx="16.5" cy="64.5" r="6.5"></circle>
                    <circle id="椭圆形备份" fill="#FDBEAF" cx="37.5" cy="64.5" r="6.5"></circle>
                    <circle id="椭圆形备份-2" fill="#A1E1FF" cx="58.5" cy="64.5" r="6.5"></circle>
                    <circle id="椭圆形备份-3" fill="#D7A9F1" cx="79.5" cy="64.5" r="6.5"></circle>
                    <path d="M0,140 L96,140 L96,152 C96,156.418278 92.418278,160 88,160 L8,160 C3.581722,160 5.41083001e-16,156.418278 0,152 L0,140 L0,140 Z" id="矩形" fill="#DDDDDD"></path>
                    <circle id="椭圆形" fill="#6DA7EB" cx="16.5" cy="147.5" r="4.5"></circle>
                    <circle id="椭圆形备份-4" fill="#AFAFAF" cx="37.5" cy="147.5" r="4.5"></circle>
                    <circle id="椭圆形备份-5" fill="#AFAFAF" cx="58.5" cy="147.5" r="4.5"></circle>
                    <circle id="椭圆形备份-6" fill="#AFAFAF" cx="79.5" cy="147.5" r="4.5"></circle>
                    <rect id="矩形" fill="#E7E7E7" x="8" y="77" width="38" height="38" rx="4"></rect>
                    <path d="M12,119 L42,119 C44.209139,119 46,120.790861 46,123 L46,140 L46,140 L8,140 L8,123 C8,120.790861 9.790861,119 12,119 Z" id="矩形备份-7" fill="#E7E7E7"></path>
                    <path d="M54,113 L84,113 C86.209139,113 88,114.790861 88,117 L88,140 L88,140 L50,140 L50,117 C50,114.790861 51.790861,113 54,113 Z" id="矩形备份-8" fill="#E7E7E7"></path>
                    <rect id="矩形备份-10" fill="#C1C1C1" x="54" y="88" width="25" height="4" rx="2"></rect>
                    <rect id="矩形" fill="#A1E1FF" x="12" y="81" width="21" height="4" rx="2"></rect>
                    <rect id="矩形备份-9" fill="#C1C1C1" x="12" y="88" width="25" height="4" rx="2"></rect>
                    <rect id="矩形备份-13" fill="#D7A9F1" x="12" y="123" width="21" height="4" rx="2"></rect>
                    <rect id="矩形备份-12" fill="#C1C1C1" x="12" y="130" width="25" height="4" rx="2"></rect>
                    <rect id="矩形备份-15" fill="#FDBEAF" x="54" y="117" width="21" height="4" rx="2"></rect>
                    <rect id="矩形备份-14" fill="#C1C1C1" x="54" y="124" width="25" height="4" rx="2"></rect>
                </g>
                <g id="编组-4" transform="translate(182.000000, 0.000000)">
                    <rect id="矩形备份" fill="#F2F2F2" x="0" y="0" width="96" height="160" rx="8"></rect>
                    <rect id="矩形备份-30" fill="#C1C1C1" x="6" y="88" width="24" height="8" rx="4"></rect>
                    <rect id="矩形备份-21" fill="#E7E7E7" x="8" y="54" width="80" height="22" rx="4"></rect>
                    <rect id="矩形" fill="#C1C1C1" x="6" y="12" width="24" height="8" rx="4"></rect>
                    <rect id="矩形备份-6" fill="#E7E7E7" x="8" y="28" width="80" height="22" rx="4"></rect>
                    <rect id="矩形备份-10" fill="#C1C1C1" x="30" y="33" width="25" height="4" rx="2"></rect>
                    <rect id="矩形备份-17" fill="#C1C1C1" x="30" y="40" width="39" height="4" rx="2"></rect>
                    <rect id="矩形" fill="#F6D894" x="12" y="32" width="14" height="14" rx="4"></rect>
                    <rect id="矩形备份-20" fill="#C1C1C1" x="30" y="59" width="25" height="4" rx="2"></rect>
                    <rect id="矩形备份-19" fill="#C1C1C1" x="30" y="66" width="39" height="4" rx="2"></rect>
                    <rect id="矩形备份-18" fill="#A1E1FF" x="12" y="58" width="14" height="14" rx="4"></rect>
                    <rect id="矩形备份-29" fill="#E7E7E7" x="8" y="104" width="80" height="22" rx="4"></rect>
                    <rect id="矩形备份-28" fill="#C1C1C1" x="30" y="109" width="25" height="4" rx="2"></rect>
                    <rect id="矩形备份-27" fill="#C1C1C1" x="30" y="116" width="39" height="4" rx="2"></rect>
                    <rect id="矩形备份-26" fill="#FDBEAF" x="12" y="108" width="14" height="14" rx="4"></rect>
                    <rect id="矩形备份-25" fill="#E7E7E7" x="8" y="130" width="80" height="22" rx="4"></rect>
                    <rect id="矩形备份-24" fill="#C1C1C1" x="30" y="135" width="25" height="4" rx="2"></rect>
                    <rect id="矩形备份-23" fill="#C1C1C1" x="30" y="142" width="39" height="4" rx="2"></rect>
                    <rect id="矩形备份-22" fill="#D7A9F1" x="12" y="134" width="14" height="14" rx="4"></rect>
                </g>
                <g id="编组-3" transform="translate(298.000000, 0.000000)">
                    <rect id="矩形备份-2" fill="#F2F2F2" x="0" y="0" width="96" height="160" rx="8"></rect>
                    <rect id="矩形备份-30" fill="#C1C1C1" x="6" y="90" width="24" height="8" rx="4"></rect>
                    <rect id="矩形备份-35" fill="#6DA7EB" x="30" y="140" width="36" height="12" rx="6"></rect>
                    <rect id="矩形" fill="#F6D894" x="6" y="12" width="64" height="40" rx="4"></rect>
                    <path d="M78,12 L96,12 L96,12 L96,52 L78,52 C75.790861,52 74,50.209139 74,48 L74,16 C74,13.790861 75.790861,12 78,12 Z" id="矩形备份-31" fill="#A1E1FF"></path>
                    <rect id="矩形备份-21" fill="#E7E7E7" x="8" y="60" width="24" height="22" rx="4"></rect>
                    <rect id="矩形备份-34" fill="#E7E7E7" x="8" y="102" width="80" height="30" rx="4"></rect>
                    <rect id="矩形备份-32" fill="#E7E7E7" x="36" y="60" width="24" height="22" rx="4"></rect>
                    <rect id="矩形备份-33" fill="#E7E7E7" x="64" y="60" width="24" height="22" rx="4"></rect>
                    <circle id="椭圆形" fill="#F6D894" cx="76" cy="71" r="5"></circle>
                    <circle id="椭圆形备份-7" fill="#D7A9F1" cx="48" cy="71" r="5"></circle>
                    <circle id="椭圆形备份-8" fill="#FDBEAF" cx="20" cy="71" r="5"></circle>
                    <rect id="矩形备份-37" fill="#C1C1C1" x="14" y="108" width="25" height="4" rx="2"></rect>
                    <rect id="矩形备份-36" fill="#C1C1C1" x="14" y="115" width="39" height="4" rx="2"></rect>
                </g>
                <g id="编组-2" transform="translate(216.000000, 221.000000)">
                    <rect id="矩形" fill="#414141" x="0" y="0" width="336" height="198" rx="4"></rect>
                    <circle id="椭圆形" fill="#FF8181" cx="12.5" cy="8.5" r="3.5"></circle>
                    <circle id="椭圆形备份-9" fill="#FFD381" cx="22.5" cy="8.5" r="3.5"></circle>
                    <circle id="椭圆形备份-10" fill="#8DEF99" cx="32.5" cy="8.5" r="3.5"></circle>
                    <path d="M0,190 L336,190 L336,194 C336,196.209139 334.209139,198 332,198 L4,198 C1.790861,198 2.705415e-16,196.209139 0,194 L0,190 L0,190 Z" id="矩形" fill="#326CC5"></path>
                    <rect id="矩形" fill="#5C5C5C" x="0" y="18" width="20" height="172"></rect>
                    <circle id="椭圆形" fill="#D6D6D6" cx="10" cy="30" r="6"></circle>
                    <circle id="椭圆形备份-11" fill="#9B9A9A" cx="10" cy="48" r="6"></circle>
                    <circle id="椭圆形备份-12" fill="#9B9A9A" cx="10" cy="66" r="6"></circle>
                    <circle id="椭圆形备份-13" fill="#9B9A9A" cx="10" cy="84" r="6"></circle>
                    <rect id="矩形" fill="#363636" x="20" y="18" width="64" height="172"></rect>
                    <rect id="矩形备份-38" fill="#262626" x="84" y="18" width="252" height="172"></rect>
                    <rect id="矩形备份-40" fill="#5F5E5E" x="28" y="30" width="25" height="4" rx="2"></rect>
                    <rect id="矩形备份-55" fill="#8D59AB" x="96" y="36" width="15" height="4" rx="2"></rect>
                    <rect id="矩形备份-56" fill="#537FAD" x="113" y="36" width="12" height="4" rx="2"></rect>
                    <rect id="矩形备份-57" fill="#B69A5E" x="127" y="36" width="22" height="4" rx="2"></rect>
                    <rect id="矩形备份-60" fill="#8D59AB" x="96" y="44" width="15" height="4" rx="2"></rect>
                    <rect id="矩形备份-59" fill="#537FAD" x="113" y="44" width="16" height="4" rx="2"></rect>
                    <rect id="矩形备份-76" fill="#537FAD" x="131" y="44" width="12" height="4" rx="2"></rect>
                    <rect id="矩形备份-77" fill="#537FAD" x="131" y="44" width="12" height="4" rx="2"></rect>
                    <rect id="矩形备份-78" fill="#537FAD" x="145" y="44" width="14" height="4" rx="2"></rect>
                    <rect id="矩形备份-58" fill="#B69A5E" x="161" y="44" width="32" height="4" rx="2"></rect>
                    <rect id="矩形备份-79" fill="#B69A5E" x="195" y="44" width="22" height="4" rx="2"></rect>
                    <rect id="矩形备份-67" fill="#8D59AB" x="96" y="56" width="15" height="4" rx="2"></rect>
                    <rect id="矩形备份-66" fill="#537FAD" x="113" y="56" width="12" height="4" rx="2"></rect>
                    <rect id="矩形备份-68" fill="#2D876F" x="106" y="64" width="12" height="4" rx="2"></rect>
                    <rect id="矩形备份-69" fill="#2D876F" x="112" y="72" width="17" height="4" rx="2"></rect>
                    <rect id="矩形备份-70" fill="#537FAD" x="118" y="80" width="12" height="4" rx="2"></rect>
                    <rect id="矩形备份-71" fill="#537FAD" x="132" y="80" width="12" height="4" rx="2"></rect>
                    <rect id="矩形备份-74" fill="#2D876F" x="112" y="88" width="21" height="4" rx="2"></rect>
                    <rect id="矩形备份-75" fill="#2D876F" x="106" y="96" width="16" height="4" rx="2"></rect>
                    <rect id="矩形备份-73" fill="#537FAD" x="106" y="120" width="12" height="4" rx="2"></rect>
                    <rect id="矩形备份-72" fill="#537FAD" x="106" y="128" width="22" height="4" rx="2"></rect>
                    <rect id="矩形备份-80" fill="#537FAD" x="106" y="136" width="17" height="4" rx="2"></rect>
                    <rect id="矩形备份-65" fill="#BF6D8E" x="127" y="56" width="22" height="4" rx="2"></rect>
                    <rect id="矩形备份-63" fill="#8D59AB" x="96" y="112" width="15" height="4" rx="2"></rect>
                    <rect id="矩形备份-62" fill="#537FAD" x="113" y="112" width="22" height="4" rx="2"></rect>
                    <rect id="矩形备份-61" fill="#B69A5E" x="137" y="112" width="24" height="4" rx="2"></rect>
                    <rect id="矩形备份-82" fill="#537FAD" x="96" y="153" width="22" height="4" rx="2"></rect>
                    <rect id="矩形备份-81" fill="#BF6D8E" x="120" y="153" width="24" height="4" rx="2"></rect>
                    <rect id="矩形备份-87" fill="#BF6D8E" x="146" y="153" width="33" height="4" rx="2"></rect>
                    <rect id="矩形备份-84" fill="#537FAD" x="106" y="161" width="17" height="4" rx="2"></rect>
                    <rect id="矩形备份-83" fill="#B69A5E" x="125" y="161" width="24" height="4" rx="2"></rect>
                    <rect id="矩形备份-86" fill="#537FAD" x="106" y="169" width="12" height="4" rx="2"></rect>
                    <rect id="矩形备份-85" fill="#B69A5E" x="120" y="169" width="18" height="4" rx="2"></rect>
                    <rect id="矩形备份-88" fill="#537FAD" x="140" y="169" width="18" height="4" rx="2"></rect>
                    <rect id="矩形备份-89" fill="#B69A5E" x="160" y="169" width="25" height="4" rx="2"></rect>
                    <rect id="矩形备份-64" fill="#B69A5E" x="163" y="112" width="15" height="4" rx="2"></rect>
                    <rect id="矩形备份-39" fill="#5F5E5E" x="32" y="38" width="39" height="4" rx="2"></rect>
                    <rect id="矩形备份-41" fill="#5F5E5E" x="32" y="46" width="35" height="4" rx="2"></rect>
                    <rect id="矩形备份-42" fill="#5F5E5E" x="36" y="54" width="37" height="4" rx="2"></rect>
                    <rect id="矩形备份-43" fill="#5F5E5E" x="36" y="62" width="27" height="4" rx="2"></rect>
                    <rect id="矩形备份-44" fill="#5F5E5E" x="36" y="70" width="17" height="4" rx="2"></rect>
                    <rect id="矩形备份-45" fill="#5F5E5E" x="32" y="78" width="26" height="4" rx="2"></rect>
                    <rect id="矩形备份-46" fill="#5F5E5E" x="36" y="86" width="33" height="4" rx="2"></rect>
                    <rect id="矩形备份-47" fill="#5F5E5E" x="40" y="94" width="22" height="4" rx="2"></rect>
                    <rect id="矩形备份-48" fill="#5F5E5E" x="40" y="102" width="30" height="4" rx="2"></rect>
                    <rect id="矩形备份-52" fill="#5F5E5E" x="36" y="118" width="23" height="4" rx="2"></rect>
                    <rect id="矩形备份-51" fill="#5F5E5E" x="40" y="126" width="29" height="4" rx="2"></rect>
                    <rect id="矩形备份-50" fill="#5F5E5E" x="40" y="134" width="33" height="4" rx="2"></rect>
                    <rect id="矩形备份-49" fill="#5F5E5E" x="40" y="110" width="25" height="4" rx="2"></rect>
                    <rect id="矩形" fill="#343333" x="84" y="18" width="252" height="10"></rect>
                    <rect id="矩形" fill="#262626" x="125" y="18" width="38" height="10"></rect>
                    <rect id="矩形" fill="#262626" x="204" y="18" width="1" height="10"></rect>
                    <rect id="矩形备份-53" fill="#262626" x="249" y="18" width="1" height="10"></rect>
                    <rect id="矩形备份-54" fill="#262626" x="294" y="18" width="1" height="10"></rect>
                </g>
            </g>
        </g>
    </g>
</svg>