<?xml version="1.0" encoding="UTF-8"?>
<!DOCTYPE svg PUBLIC "-//W3C//DTD SVG 1.1//EN" "http://www.w3.org/Graphics/SVG/1.1/DTD/svg11.dtd">
<svg xmlns="http://www.w3.org/2000/svg" version="1.1" width="192px" height="192px" style="shape-rendering:geometricPrecision; text-rendering:geometricPrecision; image-rendering:optimizeQuality; fill-rule:evenodd; clip-rule:evenodd" xmlns:xlink="http://www.w3.org/1999/xlink">
<g><path style="opacity:1" fill="#e0000b" d="M 119.5,79.5 C 117.345,79.628 115.345,79.128 113.5,78C 105.242,71.6203 97.0755,65.1203 89,58.5C 88.5172,57.552 88.3505,56.552 88.5,55.5C 95.6083,51.1075 102.942,46.9409 110.5,43C 135.173,42.1668 159.84,42.3335 184.5,43.5C 162.94,55.7781 141.273,67.7781 119.5,79.5 Z"/></g>
<g><path style="opacity:1" fill="#f9c700" d="M 185.5,60.5 C 186.823,63.9377 187.49,67.771 187.5,72C 187.333,75.8333 187.167,79.6667 187,83.5C 165.604,95.6973 143.938,107.364 122,118.5C 115.845,114.754 109.845,110.754 104,106.5C 103.312,105.668 103.479,105.002 104.5,104.5C 131.722,90.0591 158.722,75.3925 185.5,60.5 Z"/></g>
<g><path style="opacity:1" fill="#d5000b" d="M 88.5,55.5 C 88.3505,56.552 88.5172,57.552 89,58.5C 97.0755,65.1203 105.242,71.6203 113.5,78C 115.345,79.128 117.345,79.628 119.5,79.5C 108.357,86.9101 96.6905,93.5768 84.5,99.5C 83.1779,99.33 82.0113,99.6634 81,100.5C 71.4365,92.6362 61.6031,85.1362 51.5,78C 52.305,76.8873 52.9717,75.7206 53.5,74.5C 65.0308,67.9015 76.6974,61.5682 88.5,55.5 Z"/></g>
<g><path style="opacity:1" fill="#c80007" d="M 53.5,74.5 C 52.9717,75.7206 52.305,76.8873 51.5,78C 61.6031,85.1362 71.4365,92.6362 81,100.5C 82.0113,99.6634 83.1779,99.33 84.5,99.5C 76.2101,103.562 69.7101,109.562 65,117.5C 62.2106,125.976 63.7106,133.642 69.5,140.5C 69,140.833 68.5,141.167 68,141.5C 45.604,129.052 23.4374,116.219 1.5,103C 18.6954,93.2359 36.0288,83.7359 53.5,74.5 Z"/></g>
<g><path style="opacity:1" fill="#f9c600" d="M 184.5,100.5 C 185.5,100.5 186.5,100.5 187.5,100.5C 187.83,107.532 187.497,114.532 186.5,121.5C 176.114,127.693 165.447,133.36 154.5,138.5C 148.448,135.289 142.781,131.456 137.5,127C 153.229,118.139 168.896,109.306 184.5,100.5 Z"/></g>
<g><path style="opacity:1" fill="#c20006" d="M 122.5,133.5 C 109.251,139.028 95.918,144.361 82.5,149.5C 67.7237,141.004 63.8903,129.004 71,113.5C 73.0613,111.194 75.2279,109.027 77.5,107C 79.1667,106.333 80.8333,106.333 82.5,107C 96.0096,115.696 109.343,124.53 122.5,133.5 Z"/></g>
<g><path style="opacity:1" fill="#de000b" d="M 122.5,133.5 C 133.988,139.743 144.988,146.743 155.5,154.5C 134.174,155.666 112.841,155.833 91.5,155C 88.3283,153.303 85.3283,151.47 82.5,149.5C 95.918,144.361 109.251,139.028 122.5,133.5 Z"/></g>
</svg>
